<svg viewBox="0 0 900 700" xmlns="http://www.w3.org/2000/svg">
  <!-- Main pipeline flow -->
  <rect x="400" y="40" width="120" height="60" rx="10" ry="10" fill="white" stroke="black" stroke-width="2"/>
  <text x="460" y="75" font-family="Arial" font-size="16" text-anchor="middle">Input Image</text>
  
  <line x1="460" y1="100" x2="460" y2="140" stroke="black" stroke-width="2" marker-end="url(#arrowhead)"/>
  
  <rect x="400" y="140" width="120" height="60" rx="10" ry="10" fill="white" stroke="black" stroke-width="2"/>
  <text x="460" y="175" font-family="Arial" font-size="16" text-anchor="middle">Preprocessing</text>
  
  <line x1="460" y1="200" x2="460" y2="240" stroke="black" stroke-width="2" marker-end="url(#arrowhead)"/>
  
  <rect x="400" y="240" width="120" height="60" rx="10" ry="10" fill="white" stroke="black" stroke-width="2"/>
  <text x="460" y="275" font-family="Arial" font-size="16" text-anchor="middle">Feature Extraction</text>
  
  <line x1="460" y1="300" x2="460" y2="340" stroke="black" stroke-width="2" marker-end="url(#arrowhead)"/>
  
  <rect x="400" y="340" width="120" height="60" rx="10" ry="10" fill="white" stroke="black" stroke-width="2"/>
  <text x="460" y="365" font-family="Arial" font-size="14" text-anchor="middle">Random Forest</text>
  <text x="460" y="385" font-family="Arial" font-size="14" text-anchor="middle">Classification</text>
  
  <line x1="460" y1="400" x2="460" y2="440" stroke="black" stroke-width="2" marker-end="url(#arrowhead)"/>
  
  <rect x="400" y="440" width="120" height="60" rx="10" ry="10" fill="white" stroke="black" stroke-width="2"/>
  <text x="460" y="465" font-family="Arial" font-size="14" text-anchor="middle">Output Category</text>
  <text x="460" y="485" font-family="Arial" font-size="14" text-anchor="middle">Prediction</text>
  
  <!-- Preprocessing Pipeline subgraph -->
  <rect x="40" y="120" width="300" height="220" rx="5" ry="5" fill="white" stroke="black" stroke-width="2" stroke-dasharray="5,5"/>
  <text x="190" y="145" font-family="Arial" font-size="16" font-weight="bold" text-anchor="middle">Preprocessing Pipeline</text>
  
  <rect x="70" y="160" width="100" height="40" rx="5" ry="5" fill="white" stroke="black" stroke-width="2"/>
  <text x="120" y="185" font-family="Arial" font-size="12" text-anchor="middle">Grayscale Conversion</text>
  
  <line x1="120" y1="200" x2="120" y2="220" stroke="black" stroke-width="2" marker-end="url(#arrowhead)"/>
  
  <rect x="70" y="220" width="100" height="40" rx="5" ry="5" fill="white" stroke="black" stroke-width="2"/>
  <text x="120" y="245" font-family="Arial" font-size="12" text-anchor="middle">Histogram Equalization</text>
  
  <line x1="120" y1="260" x2="120" y2="280" stroke="black" stroke-width="2" marker-end="url(#arrowhead)"/>
  
  <rect x="70" y="280" width="100" height="40" rx="5" ry="5" fill="white" stroke="black" stroke-width="2"/>
  <text x="120" y="305" font-family="Arial" font-size="12" text-anchor="middle">Edge Detection</text>
  
  <line x1="170" y1="300" x2="210" y2="300" stroke="black" stroke-width="2" marker-end="url(#arrowhead)"/>
  
  <rect x="210" y="280" width="100" height="40" rx="5" ry="5" fill="white" stroke="black" stroke-width="2"/>
  <text x="260" y="300" font-family="Arial" font-size="12" text-anchor="middle">Morphological</text>
  <text x="260" y="315" font-family="Arial" font-size="12" text-anchor="middle">Operations</text>
  
  <line x1="260" y1="280" x2="260" y2="240" stroke="black" stroke-width="2" marker-end="url(#arrowhead)"/>
  
  <rect x="210" y="200" width="100" height="40" rx="5" ry="5" fill="white" stroke="black" stroke-width="2"/>
  <text x="260" y="225" font-family="Arial" font-size="12" text-anchor="middle">Resize</text>
  
  <line x1="260" y1="200" x2="260" y2="170" stroke="black" stroke-width="2"/>
  <line x1="260" y1="170" x2="400" y2="170" stroke="black" stroke-width="2" marker-end="url(#arrowhead)"/>
  
  <!-- Feature Extraction subgraph -->
  <rect x="560" y="190" width="300" height="180" rx="5" ry="5" fill="white" stroke="black" stroke-width="2" stroke-dasharray="5,5"/>
  <text x="710" y="215" font-family="Arial" font-size="16" font-weight="bold" text-anchor="middle">Feature Extraction</text>
  
  <rect x="590" y="230" width="100" height="40" rx="5" ry="5" fill="white" stroke="black" stroke-width="2"/>
  <text x="640" y="250" font-family="Arial" font-size="12" text-anchor="middle">Statistical Features</text>
  <text x="640" y="265" font-family="Arial" font-size="10" text-anchor="middle">(Mean, Std Dev)</text>
  
  <line x1="690" y1="250" x2="730" y2="250" stroke="black" stroke-width="2" marker-end="url(#arrowhead)"/>
  
  <rect x="730" y="230" width="100" height="40" rx="5" ry="5" fill="white" stroke="black" stroke-width="2"/>
  <text x="780" y="250" font-family="Arial" font-size="12" text-anchor="middle">Histogram Features</text>
  <text x="780" y="265" font-family="Arial" font-size="10" text-anchor="middle">(10 bins)</text>
  
  <line x1="780" y1="270" x2="780" y2="290" stroke="black" stroke-width="2" marker-end="url(#arrowhead)"/>
  
  <rect x="730" y="290" width="100" height="40" rx="5" ry="5" fill="white" stroke="black" stroke-width="2"/>
  <text x="780" y="310" font-family="Arial" font-size="12" text-anchor="middle">Edge Density</text>
  
  <line x1="730" y1="310" x2="690" y2="310" stroke="black" stroke-width="2" marker-end="url(#arrowhead)"/>
  
  <rect x="590" y="290" width="100" height="40" rx="5" ry="5" fill="white" stroke="black" stroke-width="2"/>
  <text x="640" y="310" font-family="Arial" font-size="12" text-anchor="middle">Region Properties</text>
  <text x="640" y="325" font-family="Arial" font-size="10" text-anchor="middle">(4x4 grid)</text>
  
  <line x1="640" y1="290" x2="640" y2="270" stroke="black" stroke-width="2"/>
  <line x1="590" y1="270" x2="520" y2="270" stroke="black" stroke-width="2" marker-end="url(#arrowhead)"/>
  
  <!-- Random Forest details -->
  <rect x="580" y="340" width="260" height="160" rx="5" ry="5" fill="white" stroke="black" stroke-width="2" stroke-dasharray="5,5"/>
  <text x="710" y="365" font-family="Arial" font-size="16" font-weight="bold" text-anchor="middle">Random Forest Details</text>
  
  <rect x="600" y="380" width="220" height="100" rx="0" ry="0" fill="white" stroke="black" stroke-width="1"/>
  <text x="710" y="400" font-family="Arial" font-size="12" text-anchor="middle">• 100 Decision Trees</text>
  <text x="710" y="425" font-family="Arial" font-size="12" text-anchor="middle">• Handles Non-linear Relationships</text>
  <text x="710" y="450" font-family="Arial" font-size="12" text-anchor="middle">• Robust to Overfitting</text>
  <text x="710" y="475" font-family="Arial" font-size="12" text-anchor="middle">• Accuracy: 58.78%</text>
  
  <!-- Output details -->
  <rect x="120" y="440" width="220" height="160" rx="5" ry="5" fill="white" stroke="black" stroke-width="2" stroke-dasharray="5,5"/>
  <text x="230" y="465" font-family="Arial" font-size="16" font-weight="bold" text-anchor="middle">Output Categories</text>
  
  <rect x="140" y="480" width="180" height="100" rx="0" ry="0" fill="white" stroke="black" stroke-width="1"/>
  <text x="230" y="500" font-family="Arial" font-size="12" text-anchor="middle">• Cardboard</text>
  <text x="230" y="525" font-family="Arial" font-size="12" text-anchor="middle">• Glass</text>
  <text x="230" y="550" font-family="Arial" font-size="12" text-anchor="middle">• Metal</text>
  <text x="230" y="575" font-family="Arial" font-size="12" text-anchor="middle">• Paper</text>
  <text x="230" y="600" font-family="Arial" font-size="12" text-anchor="middle">• Plastic • Trash</text>
  
  <!-- Connect blocks to main pipeline -->
  <line x1="400" y1="170" x2="340" y2="170" stroke="black" stroke-width="1" stroke-dasharray="2,2"/>
  <line x1="520" y1="270" x2="520" y2="270" stroke="black" stroke-width="1" stroke-dasharray="2,2"/>
  <line x1="520" y1="370" x2="580" y2="370" stroke="black" stroke-width="1" stroke-dasharray="2,2"/>
  <line x1="400" y1="470" x2="340" y2="470" stroke="black" stroke-width="1" stroke-dasharray="2,2"/>
  
  <!-- Data preprocessing examples -->
  <rect x="150" y="640" width="600" height="50" rx="0" ry="0" fill="white" stroke="black" stroke-width="1"/>
  <text x="450" y="665" font-family="Arial" font-size="12" text-anchor="middle" font-style="italic">Data source: Kaggle Garbage Classification Dataset (https://www.kaggle.com/datasets/mostafaabla/garbage-classification)</text>
  <text x="450" y="685" font-family="Arial" font-size="12" text-anchor="middle" font-style="italic">2,527 images across 6 waste categories</text>
  
  <!-- Definitions for markers -->
  <defs>
    <marker id="arrowhead" markerWidth="10" markerHeight="7" refX="9" refY="3.5" orient="auto">
      <polygon points="0 0, 10 3.5, 0 7" fill="black" />
    </marker>
  </defs>
</svg>
